# xmcd
#
# Track frame offsets: 
#        150
#        18449
#        32847
#        46529
#        64979
#        80102
#        98619
#        115610
#        129961
#        150762
#        167187
#        180059
#        193797
#
# Disc length: 2837 seconds
#
# Revision: 2
# Processed by: cddbd v1.5.2PL0 Copyright (c) Steve Scherf et al.
# Submitted via: ExactAudioCopy v1.3
#
DISCID=910b130d
DTITLE=Yuridia - 6
DYEAR=2015
DGENRE=Baladas en español
TTITLE0=Ya es muy tarde
TTITLE1=No sabía
TTITLE2=Así se fue
TTITLE3=Te equivocaste
TTITLE4=Para decir adiós
TTITLE5=Cobarde
TTITLE6=Polos opuestos
TTITLE7=Deja
TTITLE8=Mentira
TTITLE9=Alguna vez
TTITLE10=Sin la memoria
TTITLE11=Como
TTITLE12=Se va a terminar
EXTD=
EXTT0=
EXTT1=
EXTT2=
EXTT3=
EXTT4=
EXTT5=
EXTT6=
EXTT7=
EXTT8=
EXTT9=
EXTT10=
EXTT11=
EXTT12=
PLAYORDER=
